# xmcd CD database file
#
# Track frame offsets:
#	150
#	19425
#	40130
#	60730
#	86195
#	104175
#	123750
#	144660
#	162325
#	180895
#	196025
#	208770
#	230890
#
# Disc length: 3329 seconds
#
# Revision: 0
# Processed by: cddbd v1.5.2PL0 Copyright (c) Steve Scherf et al.
# Submitted via: CDex 1.70beta2
#
DISCID=bb0cff0d
DTITLE=Knut Mikalsen Bopalong Quintet - Road Song
DYEAR=1997
DGENRE=Jazz
TTITLE0=Summertime - Four on Six
TTITLE1=Road Song
TTITLE2=Misty
TTITLE3=Besame Mucho
TTITLE4=Telstar
TTITLE5=Moanin`
TTITLE6=Voi-Voi
TTITLE7=Living Doll - Sun Down
TTITLE8=When The Saints Go Marchin` In
TTITLE9=Georgia On My Mind
TTITLE10=Flintstones Theme
TTITLE11=I Remenber You
TTITLE12=Flamingo
EXTD=YEAR: 1997
EXTT0=
EXTT1=
EXTT2=
EXTT3=
EXTT4=
EXTT5=
EXTT6=
EXTT7=
EXTT8=
EXTT9=
EXTT10=
EXTT11=
EXTT12=
PLAYORDER=
